<svg width="24" height="24" viewBox="0 0 24 24" fill="none" xmlns="http://www.w3.org/2000/svg">
<path d="M12 3C12.3193 3 12.615 3.16843 12.7793 3.44269L21.8703 18.6206C22.0388 18.9019 22.0435 19.2521 21.8822 19.5375C21.7208 19.823 21.4185 20 21.091 20H2.90893C2.58147 19.9999 2.27915 19.823 2.11781 19.5375C1.95652 19.2521 1.9612 18.9018 2.12964 18.6206L11.2207 3.44269L11.2878 3.34486C11.4588 3.12892 11.7206 3.00005 12 3ZM12 15.0415C11.4422 15.0416 10.9899 15.4946 10.9899 16.0534C10.9899 16.6121 11.4422 17.0651 12 17.0652C12.5579 17.0652 13.0101 16.6122 13.0101 16.0534C13.0101 15.4945 12.5579 15.0415 12 15.0415ZM12 9.07115C11.498 9.07127 11.0905 9.47934 11.0905 9.98221V13.0178C11.0905 13.5207 11.498 13.9287 12 13.9289C12.5021 13.9289 12.9095 13.5207 12.9095 13.0178V9.98221C12.9095 9.47926 12.5021 9.07115 12 9.07115Z" fill="currentColor"/>
</svg>
