<svg width="24" height="24" viewBox="0 0 24 24" fill="none" xmlns="http://www.w3.org/2000/svg">
<path d="M12 3C16.9703 3 21 7.02965 21 12C21 16.9703 16.9703 21 12 21C7.02965 21 3 16.9703 3 12C3 7.02965 7.02965 3 12 3ZM12 4.82093C8.03489 4.82093 4.82093 8.03489 4.82093 12C4.82093 15.9651 8.03489 19.1791 12 19.1791C15.9651 19.1791 19.1791 15.9651 19.1791 12C19.1791 8.03489 15.9651 4.82093 12 4.82093ZM12 14.0224C12.5585 14.0224 13.0112 14.4751 13.0112 15.0336C13.0112 15.592 12.5585 16.0448 12 16.0448C11.4415 16.0448 10.9888 15.592 10.9888 15.0336C10.9888 14.4751 11.4415 14.0224 12 14.0224ZM12 8.05596C12.5026 8.05596 12.9105 8.46381 12.9105 8.96643V12C12.9105 12.5026 12.5026 12.9105 12 12.9105C11.4974 12.9105 11.0895 12.5026 11.0895 12V8.96643C11.0895 8.46381 11.4974 8.05596 12 8.05596Z" fill="currentColor"/>
</svg>
