<svg width="24" height="24" viewBox="0 0 24 24" fill="none" xmlns="http://www.w3.org/2000/svg">
<path fill-rule="evenodd" clip-rule="evenodd" d="M12 3C16.9696 3.00045 20.9988 7.03032 20.999 12C20.9988 16.9697 16.9696 20.9986 12 20.999C7.02999 20.999 3.00021 16.97 3 12C3.00021 7.03004 7.02999 3 12 3ZM11.999 14.0244C11.44 14.0245 10.9864 14.4781 10.9863 15.0371C10.9863 15.5962 11.4399 16.0498 11.999 16.0498C12.5582 16.0498 13.0117 15.5962 13.0117 15.0371C13.0117 14.478 12.5581 14.0244 11.999 14.0244ZM11.999 8.0625C11.502 8.0625 11.0986 8.46583 11.0986 8.96289V12C11.0987 12.497 11.502 12.9004 11.999 12.9004C12.4961 12.9004 12.8994 12.497 12.8994 12V8.96289C12.8994 8.46583 12.4961 8.0625 11.999 8.0625Z" fill="currentColor"/>
</svg>
