<svg width="24" height="24" viewBox="0 0 24 24" fill="none" xmlns="http://www.w3.org/2000/svg">
<path d="M12 3C12.3193 3 12.6149 3.16846 12.7793 3.44269L21.8703 18.6206C22.0388 18.9019 22.0435 19.2521 21.8822 19.5375C21.7208 19.823 21.4185 20 21.091 20H2.9089C2.58148 19.9999 2.2791 19.823 2.11778 19.5375C1.95653 19.2521 1.96121 18.9018 2.12961 18.6206L11.2207 3.44269L11.2878 3.34486C11.4588 3.12895 11.7206 3.00008 12 3ZM4.51483 18.1779H19.4851L12 5.67984L4.51483 18.1779ZM12 15.0415C12.5578 15.0415 13.0101 15.4945 13.0101 16.0534C13.0101 16.6122 12.5578 17.0652 12 17.0652C11.4422 17.0651 10.9898 16.6121 10.9898 16.0534C10.9898 15.4946 11.4422 15.0417 12 15.0415ZM12 9.07115C12.5021 9.07115 12.9095 9.47926 12.9095 9.98221V13.0178C12.9095 13.5207 12.5021 13.9289 12 13.9289C11.498 13.9287 11.0905 13.5206 11.0905 13.0178V9.98221C11.0905 9.47936 11.498 9.0713 12 9.07115Z" fill="currentColor"/>
</svg>
