<svg width="24" height="24" viewBox="0 0 24 24" fill="none" xmlns="http://www.w3.org/2000/svg">
<path d="M11.6559 16.0084C11.9132 15.9051 12.2068 15.9222 12.4519 16.0599L18.0252 19.1913C18.048 19.2041 18.064 19.2061 18.0756 19.2059C18.09 19.2056 18.108 19.2015 18.1261 19.1913C18.1443 19.1809 18.1572 19.1674 18.1646 19.1553C18.1706 19.1455 18.1765 19.1306 18.1765 19.1047V5.88403C18.1765 4.7291 17.2249 3.79323 16.0504 3.79323H7.94957C6.77515 3.79323 5.82349 4.7291 5.82349 5.88403V19.1047C5.82349 19.1306 5.82938 19.1455 5.83535 19.1553C5.84276 19.1674 5.85573 19.1809 5.87392 19.1913C5.89201 19.2015 5.91002 19.2056 5.92435 19.2059C5.93598 19.2061 5.95197 19.2041 5.97478 19.1913L11.5481 16.0599L11.6559 16.0084ZM20 19.1047C20 20.5573 18.4039 21.4686 17.1214 20.7482L12 17.8697L6.87862 20.7482C5.59605 21.4686 4 20.5573 4 19.1047V5.88403C4 3.73916 5.7685 2 7.94957 2H16.0504C18.2315 2 20 3.73916 20 5.88403V19.1047Z" fill="currentColor"/>
</svg>
