<svg width="24" height="24" viewBox="0 0 24 24" fill="none" xmlns="http://www.w3.org/2000/svg">
<path d="M6.04395 1.9707C6.4052 1.98718 6.72007 2.13049 6.96582 2.26367C7.25441 2.42011 7.59756 2.65 7.98633 2.90918L18.502 9.91992C18.8214 10.1329 19.1132 10.3258 19.334 10.5039C19.5284 10.6608 19.7457 10.8649 19.8936 11.1465L19.9521 11.2725L20.0156 11.4492C20.1424 11.868 20.1212 12.3198 19.9521 12.7275C19.8078 13.0755 19.5563 13.3168 19.334 13.4961C19.1132 13.6742 18.8214 13.8671 18.502 14.0801L7.98633 21.0908C7.59755 21.35 7.25441 21.5799 6.96582 21.7363C6.68505 21.8885 6.31421 22.0538 5.88672 22.0283C5.33217 21.9952 4.81954 21.7204 4.48438 21.2773C4.22638 20.936 4.15805 20.5366 4.12891 20.2188C4.09896 19.8918 4.09961 19.4782 4.09961 19.0107V4.98926C4.09961 4.52171 4.09894 4.10827 4.12891 3.78125C4.15806 3.46327 4.22607 3.06313 4.48438 2.72168L4.61817 2.56445C4.94836 2.21453 5.40135 2.00067 5.88672 1.97168L6.04395 1.9707Z" fill="currentColor"/>
</svg>
