<svg width="24" height="24" viewBox="0 0 24 24" fill="none" xmlns="http://www.w3.org/2000/svg">
<path d="M21.0996 12.2002C21.0996 11.6255 21.0997 11.2483 21.0762 10.96C21.0535 10.6827 21.014 10.5669 20.9805 10.501C20.875 10.294 20.706 10.125 20.499 10.0195C20.4331 9.98601 20.3173 9.94648 20.04 9.92383C19.7517 9.90029 19.3745 9.90039 18.7998 9.90039H12.2002C11.6255 9.90039 11.2483 9.90029 10.96 9.92383C10.6827 9.94648 10.5669 9.98601 10.501 10.0195C10.294 10.125 10.125 10.294 10.0195 10.501C9.98601 10.5669 9.94648 10.6827 9.92383 10.96C9.90029 11.2483 9.90039 11.6255 9.90039 12.2002V18.7998C9.90039 19.3745 9.90029 19.7517 9.92383 20.04C9.94648 20.3173 9.98601 20.4331 10.0195 20.499C10.125 20.706 10.294 20.875 10.501 20.9805C10.5669 21.014 10.6827 21.0535 10.96 21.0762C11.2483 21.0997 11.6255 21.0996 12.2002 21.0996H18.7998C19.3745 21.0996 19.7517 21.0997 20.04 21.0762C20.3173 21.0535 20.4331 21.014 20.499 20.9805C20.706 20.875 20.875 20.706 20.9805 20.499C21.014 20.4331 21.0535 20.3173 21.0762 20.04C21.0997 19.7517 21.0996 19.3745 21.0996 18.7998V12.2002ZM14.0996 5C14.0996 4.52175 14.0995 4.20797 14.083 3.9668C14.0671 3.73405 14.0397 3.63495 14.0166 3.5791C13.905 3.30957 13.6904 3.09504 13.4209 2.9834C13.3651 2.96029 13.266 2.93288 13.0332 2.91699C12.792 2.90054 12.4783 2.90039 12 2.90039H5.2002C4.62549 2.90039 4.24828 2.90029 3.95996 2.92383C3.68273 2.94648 3.56694 2.98601 3.50098 3.01953C3.294 3.12499 3.12499 3.294 3.01953 3.50098C2.98601 3.56694 2.94648 3.68273 2.92383 3.95996C2.90029 4.24828 2.90039 4.62549 2.90039 5.2002V12C2.90039 12.4783 2.90054 12.792 2.91699 13.0332C2.93288 13.266 2.96029 13.3651 2.9834 13.4209C3.09504 13.6904 3.30957 13.905 3.5791 14.0166C3.63495 14.0397 3.73405 14.0671 3.9668 14.083C4.20797 14.0995 4.52175 14.0996 5 14.0996C5.49706 14.0996 5.90039 14.5029 5.90039 15C5.90039 15.4971 5.49706 15.9004 5 15.9004C4.54652 15.9004 4.16132 15.9005 3.84473 15.8789C3.52016 15.8568 3.20218 15.8086 2.89063 15.6797C2.18004 15.3854 1.61465 14.82 1.32031 14.1094C1.19135 13.7978 1.14324 13.4798 1.12109 13.1553C1.09951 12.8387 1.09961 12.4535 1.09961 12V5.2002C1.09961 4.65518 1.09898 4.19206 1.12988 3.81348C1.16167 3.42437 1.23166 3.04548 1.41602 2.68359C1.69405 2.13792 2.13792 1.69405 2.68359 1.41602C3.04548 1.23166 3.42437 1.16167 3.81348 1.12988C4.19206 1.09898 4.65518 1.09961 5.2002 1.09961H12C12.4535 1.09961 12.8387 1.09951 13.1553 1.12109C13.4798 1.14324 13.7978 1.19135 14.1094 1.32031C14.82 1.61465 15.3854 2.18004 15.6797 2.89063C15.8086 3.20218 15.8568 3.52016 15.8789 3.84473C15.9005 4.16132 15.9004 4.54652 15.9004 5C15.9004 5.49706 15.4971 5.90039 15 5.90039C14.5029 5.90039 14.0996 5.49706 14.0996 5ZM22.9004 18.7998C22.9004 19.3448 22.901 19.8079 22.8701 20.1865C22.8383 20.5756 22.7683 20.9545 22.584 21.3164C22.306 21.8621 21.8621 22.306 21.3164 22.584C20.9545 22.7683 20.5756 22.8383 20.1865 22.8701C19.8079 22.901 19.3448 22.9004 18.7998 22.9004H12.2002C11.6552 22.9004 11.1921 22.901 10.8135 22.8701C10.4244 22.8383 10.0455 22.7683 9.68359 22.584C9.13793 22.306 8.69405 21.8621 8.41602 21.3164C8.23166 20.9545 8.16167 20.5756 8.12988 20.1865C8.09898 19.8079 8.09961 19.3448 8.09961 18.7998V12.2002C8.09961 11.6552 8.09898 11.1921 8.12988 10.8135C8.16167 10.4244 8.23166 10.0455 8.41602 9.68359C8.69405 9.13792 9.13792 8.69405 9.68359 8.41602C10.0455 8.23166 10.4244 8.16167 10.8135 8.12988C11.1921 8.09898 11.6552 8.09961 12.2002 8.09961H18.7998C19.3448 8.09961 19.8079 8.09898 20.1865 8.12988C20.5756 8.16167 20.9545 8.23166 21.3164 8.41602C21.8621 8.69405 22.306 9.13793 22.584 9.68359C22.7683 10.0455 22.8383 10.4244 22.8701 10.8135C22.901 11.1921 22.9004 11.6552 22.9004 12.2002V18.7998Z" fill="currentColor"/>
</svg>
