<svg width="24" height="24" viewBox="0 0 24 24" fill="none" xmlns="http://www.w3.org/2000/svg">
<path d="M19.1791 11.8994H4.82093V19.0704C4.82093 19.6841 5.31854 20.1811 5.93285 20.1811H18.0672C18.6815 20.1811 19.1791 19.6841 19.1791 19.0704V11.8994ZM15.1343 6.94969V5.83902H8.8657V6.94969C8.8657 7.45175 8.45785 7.85914 7.95523 7.85914C7.45261 7.85914 7.04477 7.45175 7.04477 6.94969V5.83902H5.93285C5.31854 5.83902 4.82093 6.33607 4.82093 6.94969V10.0805H19.1791V6.94969C19.1791 6.33607 18.6815 5.83902 18.0672 5.83902H16.9552V6.94969C16.9552 7.45175 16.5474 7.85914 16.0448 7.85914C15.5421 7.85914 15.1343 7.45175 15.1343 6.94969ZM21 19.0704C21 20.6882 19.6867 22 18.0672 22H5.93285C4.3133 22 3 20.6882 3 19.0704V6.94969C3 5.33195 4.3133 4.02012 5.93285 4.02012H7.04477V2.90945C7.04477 2.40739 7.45261 2 7.95523 2C8.45785 2 8.8657 2.40739 8.8657 2.90945V4.02012H15.1343V2.90945C15.1343 2.40739 15.5421 2 16.0448 2C16.5474 2 16.9552 2.40739 16.9552 2.90945V4.02012H18.0672C19.6867 4.02012 21 5.33195 21 6.94969V19.0704Z" fill="currentColor"/>
</svg>
