<svg width="24" height="24" viewBox="0 0 24 24" fill="none" xmlns="http://www.w3.org/2000/svg">
<path d="M16.0996 9.79981C16.0996 8.94527 16.0996 8.35833 16.0625 7.90332C16.0262 7.45889 15.9591 7.21971 15.8711 7.04688C15.6698 6.65173 15.3483 6.33024 14.9531 6.12891C14.7803 6.04089 14.5411 5.97381 14.0967 5.9375C13.6417 5.90036 13.0547 5.90039 12.2002 5.90039H6.79981C5.94527 5.90039 5.35833 5.90036 4.90332 5.9375C4.45889 5.97381 4.21971 6.04089 4.04688 6.12891C3.65174 6.33024 3.33024 6.65174 3.12891 7.04688C3.04089 7.21971 2.97381 7.45889 2.9375 7.90332C2.90036 8.35833 2.90039 8.94527 2.90039 9.79981V14.2002C2.90039 15.0547 2.90036 15.6417 2.9375 16.0967C2.97381 16.5411 3.04089 16.7803 3.12891 16.9531C3.33024 17.3483 3.65173 17.6698 4.04688 17.8711C4.21971 17.9591 4.45889 18.0262 4.90332 18.0625C5.35833 18.0996 5.94527 18.0996 6.79981 18.0996H12.2002C13.0547 18.0996 13.6417 18.0996 14.0967 18.0625C14.5411 18.0262 14.7803 17.9591 14.9531 17.8711C15.3483 17.6698 15.6698 17.3483 15.8711 16.9531C15.9591 16.7803 16.0262 16.5411 16.0625 16.0967C16.0996 15.6417 16.0996 15.0547 16.0996 14.2002V9.79981ZM18.2725 12L21.0996 14.8262V9.17285L18.2725 12ZM17.9004 9.82617L19.998 7.72949C20.1996 7.5279 20.3935 7.33209 20.5615 7.19141C20.7069 7.06975 20.9959 6.84259 21.3906 6.81152L21.5566 6.80859C21.9436 6.82423 22.3097 6.99964 22.5645 7.29785C22.8218 7.59912 22.8651 7.96462 22.8818 8.15332C22.9011 8.37155 22.9004 8.64676 22.9004 8.93164V15.0684C22.9004 15.3532 22.9011 15.6285 22.8818 15.8467C22.8651 16.0354 22.8218 16.4009 22.5645 16.7021C22.2735 17.0428 21.8372 17.2235 21.3906 17.1885C20.9959 17.1574 20.7069 16.9303 20.5615 16.8086C20.3935 16.6679 20.1996 16.4721 19.998 16.2705L17.9004 14.1729V14.2002C17.9004 15.0253 17.901 15.6988 17.8564 16.2441C17.811 16.7999 17.7135 17.3017 17.4746 17.7705C17.1007 18.5043 16.5043 19.1007 15.7705 19.4746C15.3017 19.7135 14.7999 19.811 14.2441 19.8564C13.6988 19.901 13.0253 19.9004 12.2002 19.9004H6.79981C5.97467 19.9004 5.30122 19.901 4.75586 19.8564C4.20012 19.811 3.69826 19.7135 3.22949 19.4746C2.49573 19.1007 1.89929 18.5043 1.52539 17.7705C1.28654 17.3017 1.18899 16.7999 1.14356 16.2441C1.099 15.6988 1.09961 15.0253 1.09961 14.2002V9.79981C1.09961 8.97467 1.099 8.30122 1.14356 7.75586C1.18899 7.20012 1.28654 6.69826 1.52539 6.22949C1.89929 5.49573 2.49573 4.89929 3.22949 4.52539C3.69826 4.28654 4.20012 4.18899 4.75586 4.14356C5.30122 4.099 5.97467 4.09961 6.79981 4.09961H12.2002C13.0253 4.09961 13.6988 4.099 14.2441 4.14356C14.7999 4.18899 15.3017 4.28654 15.7705 4.52539C16.5043 4.89929 17.1007 5.49573 17.4746 6.22949C17.7135 6.69826 17.811 7.20012 17.8564 7.75586C17.901 8.30122 17.9004 8.97467 17.9004 9.79981V9.82617Z" fill="currentColor"/>
</svg>
