<svg width="24" height="24" viewBox="0 0 24 24" fill="none" xmlns="http://www.w3.org/2000/svg">
<path d="M12 17.2998C12.9389 17.2998 13.7002 18.0611 13.7002 19C13.7002 19.9389 12.9389 20.7002 12 20.7002C11.0611 20.7002 10.2998 19.9389 10.2998 19C10.2998 18.0611 11.0611 17.2998 12 17.2998Z" fill="currentColor"/>
<path d="M12 10.2998C12.9389 10.2998 13.7002 11.0611 13.7002 12C13.7002 12.9389 12.9389 13.7002 12 13.7002C11.0611 13.7002 10.2998 12.9389 10.2998 12C10.2998 11.0611 11.0611 10.2998 12 10.2998Z" fill="currentColor"/>
<path d="M12 3.2998C12.9389 3.2998 13.7002 4.06112 13.7002 5C13.7002 5.93888 12.9389 6.7002 12 6.7002C11.0611 6.7002 10.2998 5.93888 10.2998 5C10.2998 4.06112 11.0611 3.2998 12 3.2998Z" fill="currentColor"/>
</svg>
