<svg width="24" height="24" viewBox="0 0 24 24" fill="none" xmlns="http://www.w3.org/2000/svg">
<path d="M20.1811 10.2351C20.1811 9.90035 20.0233 9.58405 19.753 9.37838L12.6826 4.00478C12.2814 3.69989 11.7186 3.69989 11.3174 4.00478L4.24699 9.37838C3.97666 9.58405 3.8189 9.90035 3.8189 10.2351V20.1246C3.8189 20.1791 3.86373 20.2229 3.91951 20.2229H7.95976C8.01554 20.2229 8.06037 20.1791 8.06037 20.1246V16.1773C8.06037 14.5968 9.3722 13.3151 10.9899 13.3151H13.0101C14.6278 13.3151 15.9396 14.5968 15.9396 16.1773V20.1246C15.9396 20.1791 15.9845 20.2229 16.0402 20.2229H20.0805C20.1363 20.2229 20.1811 20.1791 20.1811 20.1246V10.2351ZM22 20.1246C22 21.1602 21.1404 22 20.0805 22H16.0402C14.9803 22 14.1207 21.1602 14.1207 20.1246V16.1773C14.1207 15.5778 13.6237 15.0922 13.0101 15.0922H10.9899C10.3763 15.0922 9.87927 15.5778 9.87927 16.1773V20.1246C9.87927 21.1602 9.01965 22 7.95976 22H3.91951C2.85961 22 2 21.1602 2 20.1246V10.2351C2 9.35203 2.41794 8.51839 3.13139 7.9762L10.2018 2.60259C11.2594 1.79914 12.7406 1.79914 13.7982 2.60259L20.8686 7.9762C21.5821 8.51839 22 9.35203 22 10.2351V20.1246Z" fill="currentColor"/>
</svg>
