<svg width="24" height="24" viewBox="0 0 24 24" fill="none" xmlns="http://www.w3.org/2000/svg">
<path d="M4.26611 4.40007C6.71419 2.3101 9.87484 2.71083 11.9928 4.60598C14.1086 2.70946 17.2364 2.33608 19.7133 4.39291C22.402 6.62615 22.725 10.4334 20.654 13.0964C19.8585 14.1192 18.3009 15.6616 16.7987 17.0784C15.2809 18.5098 13.7666 19.8631 13.0196 20.5241C12.9461 20.5892 12.8547 20.6698 12.7687 20.7345C12.673 20.8065 12.5389 20.8936 12.3611 20.9467C12.1224 21.0177 11.8651 21.0178 11.6264 20.9467C11.4486 20.8936 11.3144 20.8065 11.2187 20.7345C11.1327 20.6698 11.0413 20.5891 10.9679 20.5241C10.2207 19.8629 8.70572 18.5099 7.18782 17.0784C5.68561 15.6616 4.12887 14.1191 3.33342 13.0964C1.25524 10.424 1.63639 6.64533 4.26611 4.40007Z" fill="currentColor"/>
</svg>
