<svg width="24" height="24" viewBox="0 0 24 24" fill="none" xmlns="http://www.w3.org/2000/svg">
<path d="M4.26625 4.40013C6.71438 2.31011 9.87493 2.71076 11.9929 4.60604C14.1087 2.70948 17.2364 2.33597 19.7133 4.39297C22.402 6.6262 22.725 10.4335 20.654 13.0964C19.8586 14.1192 18.301 15.6615 16.7988 17.0783C15.2809 18.5098 13.7667 19.863 13.0197 20.5241C12.9461 20.5891 12.8548 20.6697 12.7688 20.7344C12.6731 20.8065 12.5391 20.8935 12.3611 20.9466C12.1224 21.0178 11.8652 21.0178 11.6265 20.9466C11.4485 20.8935 11.3145 20.8065 11.2188 20.7344C11.1328 20.6697 11.0415 20.5891 10.9679 20.5241C10.2208 19.8629 8.70594 18.51 7.18793 17.0783C5.68568 15.6615 4.12904 14.1192 3.33356 13.0964C1.25521 10.424 1.63631 6.6454 4.26625 4.40013ZM11.3666 6.3204C9.77533 4.46152 7.23115 4.0387 5.3387 5.65435C3.37225 7.33317 3.10621 10.1151 4.63717 12.0839C5.34229 12.9905 6.80654 14.4484 8.3222 15.8778C9.77626 17.2492 11.2309 18.5501 11.9938 19.226C12.7567 18.5501 14.2113 17.2492 15.6654 15.8778C17.1811 14.4484 18.6453 12.9905 19.3504 12.0839C20.8887 10.1057 20.6433 7.31112 18.657 5.66151C16.7166 4.05034 14.206 4.46889 12.621 6.3204C12.4641 6.5036 12.2351 6.60955 11.9938 6.60956C11.7525 6.60956 11.5235 6.50359 11.3666 6.3204Z" fill="currentColor"/>
</svg>
