<svg width="24" height="24" viewBox="0 0 24 24" fill="none" xmlns="http://www.w3.org/2000/svg">
<path d="M10.2018 2.60249C11.2594 1.79917 12.7406 1.79917 13.7982 2.60249L20.8686 7.97612C21.582 8.51826 21.9999 9.35207 22 10.2351V20.1246C22 21.1602 21.1404 22 20.0805 22H16.0402C14.9803 22 14.1207 21.1602 14.1207 20.1246V16.1773C14.1206 15.5779 13.6236 15.0921 13.0101 15.0921H10.9899C10.3764 15.0921 9.87942 15.5779 9.87927 16.1773V20.1246C9.87927 21.1602 9.01965 22 7.95976 22H3.91951C2.85961 22 2 21.1602 2 20.1246V10.2351C2.00009 9.35207 2.41801 8.51826 3.13139 7.97612L10.2018 2.60249Z" fill="currentColor"/>
</svg>
