<svg width="24" height="24" viewBox="0 0 24 24" fill="none" xmlns="http://www.w3.org/2000/svg">
<path d="M19.1791 18.0689C19.1791 17.497 18.7225 16.6044 17.4697 15.8039C16.254 15.0272 14.4075 14.4311 12 14.4311C9.59252 14.4311 7.74604 15.0272 6.53028 15.8039C5.27754 16.6044 4.82093 17.497 4.82093 18.0689C4.82093 18.4754 4.82094 18.8096 4.82093 19.0805C4.82113 19.1354 4.8652 19.1801 4.92166 19.1801H19.0783C19.1348 19.1801 19.1789 19.1354 19.1791 19.0805V18.0689ZM15.1343 6.95232C15.1343 5.22209 13.7312 3.81986 12 3.81986C10.2688 3.81986 8.8657 5.22209 8.8657 6.95232C8.8657 8.68254 10.2688 10.0848 12 10.0848C13.7312 10.0848 15.1343 8.68254 15.1343 6.95232ZM21 19.0805C20.9998 20.1415 20.1386 21 19.0783 21H4.92166C3.86143 21 3.00019 20.1415 3 19.0805V18.0689C3 16.6196 4.03555 15.2392 5.55069 14.2712C7.10313 13.2795 9.30129 12.6113 12 12.6113C14.6987 12.6113 16.8969 13.2795 18.4493 14.2712C19.9644 15.2392 21 16.6196 21 18.0689V19.0805ZM16.9552 6.95232C16.9552 9.68719 14.7365 11.9046 12 11.9046C9.26352 11.9046 7.04477 9.68719 7.04477 6.95232C7.04477 4.21745 9.26352 2 12 2C14.7365 2 16.9552 4.21745 16.9552 6.95232Z" fill="currentColor"/>
</svg>
