<svg width="24" height="24" viewBox="0 0 24 24" fill="none" xmlns="http://www.w3.org/2000/svg">
<path d="M12 12.6113C14.6987 12.6113 16.8969 13.2795 18.4493 14.2712C19.9644 15.2392 21 16.6196 21 18.0689V19.0805C20.9998 20.1415 20.1386 21 19.0783 21H4.92166C3.86143 21 3.0002 20.1415 3 19.0805V18.0689C3 16.6196 4.03555 15.2392 5.55069 14.2712C7.10313 13.2795 9.30129 12.6113 12 12.6113Z" fill="currentColor"/>
<path d="M12 2C14.7365 2 16.9552 4.21745 16.9552 6.95232C16.9552 9.68719 14.7365 11.9046 12 11.9046C9.26352 11.9046 7.04477 9.68719 7.04477 6.95232C7.04477 4.21745 9.26352 2 12 2Z" fill="currentColor"/>
</svg>
