<svg width="24" height="24" viewBox="0 0 24 24" fill="none" xmlns="http://www.w3.org/2000/svg">
<path d="M21.0905 17.1732C21.5926 17.1732 22 17.5824 22 18.0866C22 18.5908 21.5926 19 21.0905 19H2.90945C2.40739 19 2 18.5908 2 18.0866C2 17.5824 2.40739 17.1732 2.90945 17.1732H21.0905ZM21.0905 11.0866C21.5926 11.0866 22 11.4958 22 12C22 12.5042 21.5926 12.9134 21.0905 12.9134H2.90945C2.40739 12.9134 2 12.5042 2 12C2 11.4958 2.40739 11.0866 2.90945 11.0866H21.0905ZM21.0905 5C21.5926 5 22 5.40916 22 5.91339C22 6.41762 21.5926 6.82678 21.0905 6.82678H2.90945C2.40739 6.82678 2 6.41762 2 5.91339C2 5.40916 2.40739 5 2.90945 5H21.0905Z" fill="currentColor"/>
</svg>
