<svg width="24" height="24" viewBox="0 0 24 24" fill="none" xmlns="http://www.w3.org/2000/svg">
<path d="M11.0895 20.0895V12.9105H3.91047C3.40785 12.9105 3 12.5026 3 12C3 11.4974 3.40785 11.0895 3.91047 11.0895H11.0895V3.91047C11.0895 3.40785 11.4974 3 12 3C12.5026 3 12.9105 3.40785 12.9105 3.91047V11.0895H20.0895C20.5922 11.0895 21 11.4974 21 12C21 12.5026 20.5922 12.9105 20.0895 12.9105H12.9105V20.0895C12.9105 20.5922 12.5026 21 12 21C11.4974 21 11.0895 20.5922 11.0895 20.0895Z" fill="currentColor"/>
</svg>
