<svg width="24" height="24" viewBox="0 0 24 24" fill="none" xmlns="http://www.w3.org/2000/svg">
<path d="M12.0117 1.09958C12.7026 1.09958 13.195 1.09444 13.668 1.20797C13.8928 1.26198 14.1111 1.33805 14.3223 1.43063C14.3615 1.4457 14.3992 1.4632 14.4355 1.48337C14.558 1.5418 14.6789 1.60369 14.7949 1.67477C15.2096 1.92888 15.5535 2.28101 16.042 2.7695L19.2305 5.95797C19.719 6.44646 20.0711 6.79039 20.3252 7.20504C20.3961 7.3208 20.4583 7.44127 20.5166 7.56344C20.536 7.59821 20.5527 7.63443 20.5674 7.67184C20.6611 7.88473 20.7375 8.10513 20.792 8.332C20.9055 8.80492 20.9004 9.29733 20.9004 9.98825V17.2002C20.9004 18.0253 20.901 18.6988 20.8564 19.2441C20.811 19.7998 20.7134 20.3017 20.4746 20.7705C20.1007 21.5042 19.5043 22.1007 18.7705 22.4746C18.3017 22.7134 17.7999 22.811 17.2441 22.8564C16.6988 22.901 16.0253 22.9004 15.2002 22.9004H8.79981C7.97467 22.9004 7.30122 22.901 6.75586 22.8564C6.20012 22.811 5.69826 22.7134 5.22949 22.4746C4.49573 22.1007 3.89928 21.5042 3.52539 20.7705C3.28655 20.3017 3.18899 19.7998 3.14356 19.2441C3.099 18.6988 3.09961 18.0253 3.09961 17.2002V6.79977C3.09961 5.97465 3.099 5.30118 3.14356 4.75583C3.18899 4.2001 3.28655 3.69822 3.52539 3.22946C3.89929 2.49571 4.49574 1.89925 5.22949 1.52536C5.69826 1.28651 6.20012 1.18896 6.75586 1.14352C7.30122 1.09896 7.97467 1.09958 8.79981 1.09958H12.0117Z" fill="currentColor"/>
<path d="M14 16.0996C14.4971 16.0996 14.9004 16.5029 14.9004 17C14.9004 17.4971 14.4971 17.9004 14 17.9004H8C7.50294 17.9004 7.09961 17.4971 7.09961 17C7.09961 16.5029 7.50294 16.0996 8 16.0996H14ZM16 12.0996C16.4971 12.0996 16.9004 12.5029 16.9004 13C16.9004 13.4971 16.4971 13.9004 16 13.9004H8C7.50294 13.9004 7.09961 13.4971 7.09961 13C7.09961 12.5029 7.50294 12.0996 8 12.0996H16Z" fill="white"/>
</svg>
