<svg width="24" height="24" viewBox="0 0 24 24" fill="none" xmlns="http://www.w3.org/2000/svg">
<path d="M3.09961 17.2002V6.7998C3.09961 5.97466 3.099 5.30122 3.14356 4.75586C3.18899 4.20011 3.28654 3.69826 3.52539 3.22949C3.89929 2.49572 4.49573 1.89928 5.22949 1.52539C5.69826 1.28654 6.20012 1.18899 6.75586 1.14355C7.30122 1.09899 7.97467 1.09961 8.79981 1.09961H12.0117C12.7027 1.09961 13.195 1.09446 13.668 1.20801C13.8928 1.26201 14.1111 1.33808 14.3223 1.43066C14.3615 1.44573 14.3992 1.46322 14.4355 1.4834C14.558 1.54184 14.6789 1.60371 14.7949 1.6748C15.2096 1.92891 15.5535 2.28103 16.042 2.76953L19.2305 5.958C19.719 6.4465 20.0711 6.79041 20.3252 7.20508C20.3961 7.32084 20.4583 7.44129 20.5166 7.56347C20.536 7.59825 20.5527 7.63445 20.5674 7.67187C20.6611 7.88477 20.7375 8.10515 20.792 8.33203C20.9055 8.80496 20.9004 9.29734 20.9004 9.98828V17.2002C20.9004 18.0253 20.901 18.6988 20.8564 19.2441C20.811 19.7999 20.7135 20.3017 20.4746 20.7705C20.1007 21.5043 19.5043 22.1007 18.7705 22.4746C18.3017 22.7135 17.7999 22.811 17.2441 22.8564C16.6988 22.901 16.0253 22.9004 15.2002 22.9004H8.79981C7.97467 22.9004 7.30122 22.901 6.75586 22.8564C6.20012 22.811 5.69826 22.7135 5.22949 22.4746C4.49573 22.1007 3.89929 21.5043 3.52539 20.7705C3.28654 20.3017 3.18899 19.7999 3.14356 19.2441C3.099 18.6988 3.09961 18.0253 3.09961 17.2002ZM14 16.0996C14.4971 16.0996 14.9004 16.5029 14.9004 17C14.9004 17.4971 14.4971 17.9004 14 17.9004H8C7.50294 17.9004 7.09961 17.4971 7.09961 17C7.09961 16.5029 7.50294 16.0996 8 16.0996H14ZM16 12.0996C16.4971 12.0996 16.9004 12.5029 16.9004 13C16.9004 13.4971 16.4971 13.9004 16 13.9004H8C7.50294 13.9004 7.09961 13.4971 7.09961 13C7.09961 12.5029 7.50294 12.0996 8 12.0996H16ZM4.90039 17.2002C4.90039 18.0547 4.90036 18.6417 4.9375 19.0967C4.97381 19.5411 5.04089 19.7803 5.12891 19.9531C5.33024 20.3483 5.65174 20.6698 6.04688 20.8711C6.21971 20.9591 6.45889 21.0262 6.90332 21.0625C7.35833 21.0996 7.94527 21.0996 8.79981 21.0996H15.2002C16.0547 21.0996 16.6417 21.0996 17.0967 21.0625C17.5411 21.0262 17.7803 20.9591 17.9531 20.8711C18.3483 20.6698 18.6698 20.3483 18.8711 19.9531C18.9591 19.7803 19.0262 19.5411 19.0625 19.0967C19.0996 18.6417 19.0996 18.0547 19.0996 17.2002V9.98828C19.0996 9.37768 19.0953 9.0979 19.0684 8.90039H15.5996C15.3347 8.90039 15.0819 8.90107 14.8701 8.88379C14.6478 8.86562 14.3925 8.82313 14.1377 8.69336C13.7802 8.5112 13.4888 8.21981 13.3066 7.8623C13.1769 7.60748 13.1344 7.35216 13.1162 7.12988C13.0989 6.91813 13.0996 6.66532 13.0996 6.40039V2.93066C12.9021 2.90376 12.6222 2.90039 12.0117 2.90039H8.79981C7.94527 2.90039 7.35833 2.90035 6.90332 2.9375C6.45889 2.97381 6.21971 3.04088 6.04688 3.1289C5.65174 3.33024 5.33024 3.65173 5.12891 4.04687C5.04089 4.2197 4.97381 4.45888 4.9375 4.90332C4.90036 5.35833 4.90039 5.94526 4.90039 6.7998V17.2002ZM14.9004 6.40039C14.9004 6.69489 14.9002 6.86186 14.9102 6.9834C14.9132 7.02006 14.9176 7.04382 14.9199 7.05761C14.9261 7.06623 14.9338 7.07285 14.9424 7.0791C14.9561 7.08146 14.9797 7.08683 15.0166 7.08984C15.1381 7.09976 15.3051 7.09961 15.5996 7.09961H17.8271L14.9004 4.17285V6.40039Z" fill="currentColor"/>
</svg>
