<svg width="24" height="24" viewBox="0 0 24 24" fill="none" xmlns="http://www.w3.org/2000/svg">
<path d="M16.1409 18.3034C16.1409 17.8461 15.7732 17.0861 14.6958 16.3903C13.6546 15.718 12.0643 15.1966 9.97988 15.1966C7.89548 15.1966 6.30514 15.718 5.26396 16.3903C4.18659 17.0861 3.8189 17.8461 3.8189 18.3034C3.8189 18.6048 3.8189 18.861 3.8189 19.0771C3.8189 19.1325 3.86328 19.1779 3.91951 19.1779H16.0402C16.0965 19.1779 16.1409 19.1325 16.1409 19.0771V18.3034ZM20.1811 19.0771V18.3034C20.1811 17.708 19.5384 16.6202 17.7378 15.8706C17.2742 15.6775 17.0539 15.1443 17.2466 14.6798C17.4393 14.2155 17.9716 13.9958 18.4352 14.1887C20.5088 15.052 22 16.6142 22 18.3034V19.0771C22 20.1389 21.1404 21 20.0805 21H19.0704C18.5684 21 18.161 20.5919 18.161 20.0889C18.161 19.586 18.5684 19.1779 19.0704 19.1779H20.0805C20.1363 19.1779 20.1811 19.133 20.1811 19.0771ZM12.6056 8.48221C12.6056 7.00566 11.4231 5.82213 9.97988 5.82213C8.53668 5.82213 7.35418 7.00566 7.35411 8.48221C7.35411 9.95882 8.53665 11.1433 9.97988 11.1433C11.4231 11.1433 12.6056 9.95882 12.6056 8.48221ZM17.6559 8.48221C17.6559 7.00566 16.4734 5.82213 15.0302 5.82213C14.5281 5.82213 14.1207 5.41402 14.1207 4.91107C14.1207 4.40812 14.5281 4 15.0302 4C17.4918 4 19.4748 6.01416 19.4748 8.48221C19.4748 10.9503 17.4918 12.9644 15.0302 12.9644C14.5281 12.9644 14.1207 12.5563 14.1207 12.0534C14.1209 11.5505 14.5282 11.1433 15.0302 11.1433C16.4734 11.1433 17.6559 9.95882 17.6559 8.48221ZM17.9598 19.0771C17.9598 20.1393 17.0997 21 16.0402 21H3.91951C2.86006 21 2 20.1393 2 19.0771C2 18.861 2 18.6048 2 18.3034C2 16.9751 2.9365 15.7264 4.27856 14.8597C5.65684 13.9696 7.60146 13.3745 9.97988 13.3745C12.3583 13.3745 14.3029 13.9696 15.6812 14.8597C17.0233 15.7264 17.9598 16.9751 17.9598 18.3034V19.0771ZM14.4245 8.48221C14.4245 10.9503 12.4415 12.9644 9.97988 12.9644C7.51822 12.9644 5.53521 10.9503 5.53521 8.48221C5.53528 6.01416 7.51826 4 9.97988 4C12.4415 4 14.4245 6.01416 14.4245 8.48221Z" fill="currentColor"/>
</svg>
