<svg width="24" height="24" viewBox="0 0 24 24" fill="none" xmlns="http://www.w3.org/2000/svg">
<path d="M16.6459 10.2324C16.6459 6.69012 13.7747 3.81891 10.2324 3.81891C6.69012 3.81891 3.81891 6.69012 3.81891 10.2324C3.81891 13.7747 6.69012 16.6459 10.2324 16.6459C11.9662 16.6459 13.5375 15.9566 14.6919 14.8389C14.7133 14.812 14.7371 14.7868 14.7619 14.7619C14.7868 14.7371 14.812 14.7133 14.8389 14.6919C15.9566 13.5375 16.6459 11.9662 16.6459 10.2324ZM18.4648 10.2324C18.4648 12.1781 17.7874 13.9645 16.6588 15.3735L21.7337 20.4475C22.0888 20.8025 22.0888 21.3787 21.7337 21.7337C21.3787 22.0888 20.8025 22.0888 20.4475 21.7337L15.3735 16.6588C13.9645 17.7874 12.1781 18.4648 10.2324 18.4648C5.686 18.4648 2 14.7788 2 10.2324C2 5.686 5.686 2 10.2324 2C14.7788 2 18.4648 5.686 18.4648 10.2324Z" fill="currentColor"/>
</svg>
