<svg width="24" height="24" viewBox="0 0 24 24" fill="none" xmlns="http://www.w3.org/2000/svg">
<path d="M12 2C12.312 2 12.6 2.16733 12.7533 2.43751L15.6069 7.47395L21.3067 8.61762C21.6126 8.679 21.8612 8.89991 21.9577 9.19505C22.0541 9.49015 21.9831 9.81363 21.7719 10.0421L17.8367 14.2977L18.5046 20.0422C18.5403 20.3503 18.407 20.6537 18.1547 20.8361C17.9023 21.0185 17.5698 21.051 17.2861 20.9219L12 18.5161L6.71394 20.9219C6.43018 21.051 6.09775 21.0185 5.84528 20.8361C5.59305 20.6537 5.45972 20.3503 5.49538 20.0422L6.16235 14.2977L2.22806 10.0421C2.01691 9.81363 1.9459 9.49015 2.04232 9.19505C2.13875 8.89991 2.38744 8.679 2.69334 8.61762L8.39216 7.47395L11.2467 2.43751L11.3105 2.34142C11.4725 2.12837 11.727 2 12 2ZM9.70453 8.66146C9.58116 8.87912 9.36827 9.03276 9.12198 9.08218L4.53854 10.001L7.70361 13.4246C7.87352 13.6085 7.95477 13.8575 7.92593 14.1056L7.38842 18.7232L11.6398 16.7894L11.727 16.7548C11.9335 16.6865 12.1602 16.6983 12.3602 16.7894L16.6106 18.7232L16.0741 14.1056C16.0452 13.8575 16.1265 13.6085 16.2964 13.4246L19.4605 10.001L14.878 9.08218C14.6317 9.03276 14.4188 8.87912 14.2955 8.66146L12 4.61104L9.70453 8.66146Z" fill="currentColor"/>
</svg>
