<svg width="24" height="24" viewBox="0 0 24 24" fill="none" xmlns="http://www.w3.org/2000/svg">
<path d="M2 17.8581V10.9899C2 10.4878 2.40739 10.0804 2.90945 10.0804C3.41151 10.0804 3.8189 10.4878 3.8189 10.9899V17.8581C3.8189 18.4386 3.8188 18.8196 3.84257 19.1108C3.86545 19.3909 3.90538 19.5078 3.93924 19.5745C4.04576 19.7835 4.21647 19.9542 4.42553 20.0607C4.49216 20.0946 4.60911 20.1345 4.88913 20.1574C5.18035 20.1812 5.56136 20.1811 6.14184 20.1811H17.8582C18.4386 20.1811 18.8197 20.1812 19.1109 20.1574C19.3909 20.1345 19.5078 20.0946 19.5745 20.0607C19.7835 19.9542 19.9542 19.7835 20.0608 19.5745C20.0946 19.5078 20.1345 19.3909 20.1574 19.1108C20.1812 18.8196 20.1811 18.4386 20.1811 17.8581V10.9899C20.1811 10.4878 20.5885 10.0804 21.0905 10.0804C21.5926 10.0804 22 10.4878 22 10.9899V17.8581C22 18.4086 22.0006 18.8764 21.9694 19.2588C21.9373 19.6518 21.8666 20.0345 21.6804 20.4001C21.3996 20.9512 20.9512 21.3996 20.4001 21.6804C20.0346 21.8666 19.6518 21.9373 19.2588 21.9694C18.8764 22.0006 18.4087 22 17.8582 22H6.14184C5.59134 22 5.12356 22.0006 4.74117 21.9694C4.34815 21.9373 3.96545 21.8666 3.59992 21.6804C3.04876 21.3996 2.60042 20.9512 2.31959 20.4001C2.13338 20.0345 2.06269 19.6518 2.03058 19.2588C1.99936 18.8764 2 18.4086 2 17.8581ZM11.0906 15.0301V5.10503L8.60288 7.59272C8.24787 7.94773 7.67164 7.94773 7.31663 7.59272C6.96162 7.23771 6.96162 6.66147 7.31663 6.30646L11.3569 2.26619L11.4259 2.20404C11.783 1.91269 12.3103 1.93331 12.6431 2.26619L16.6834 6.30646C17.0384 6.66147 17.0384 7.23771 16.6834 7.59272C16.3284 7.94773 15.7521 7.94773 15.3971 7.59272L12.9094 5.10503V15.0301C12.9094 15.5322 12.5021 15.9396 12 15.9396C11.4979 15.9396 11.0906 15.5322 11.0906 15.0301Z" fill="currentColor"/>
</svg>
