<svg width="24" height="24" viewBox="0 0 24 24" fill="none" xmlns="http://www.w3.org/2000/svg">
<path d="M12 2C12.3119 2 12.6 2.16738 12.7533 2.43751L15.6069 7.47396L21.3067 8.61763C21.6125 8.679 21.8612 8.89995 21.9577 9.19506C22.0541 9.49017 21.9831 9.81364 21.7719 10.0421L17.8367 14.2977L18.5046 20.0422C18.5403 20.3503 18.4069 20.6537 18.1547 20.8361C17.9023 21.0184 17.5698 21.051 17.2861 20.9219L12 18.5161L6.71391 20.9219C6.43019 21.051 6.09767 21.0185 5.84525 20.8361C5.59311 20.6537 5.45971 20.3502 5.49535 20.0422L6.16232 14.2977L2.22802 10.0421C2.01696 9.81366 1.94591 9.49011 2.04229 9.19506C2.1387 8.89999 2.3875 8.67906 2.69331 8.61763L8.39214 7.47396L11.2467 2.43751L11.3105 2.34142C11.4725 2.12842 11.727 2.00006 12 2Z" fill="currentColor"/>
</svg>
