<svg width="24" height="24" viewBox="0 0 24 24" fill="none" xmlns="http://www.w3.org/2000/svg">
<path d="M17.4408 5.26741C17.7973 4.91086 18.376 4.91086 18.7326 5.26741C19.0891 5.62396 19.0891 6.2027 18.7326 6.55924L13.2918 12L18.7326 17.4408C19.0891 17.7973 19.0891 18.376 18.7326 18.7326C18.376 19.0891 17.7973 19.0891 17.4408 18.7326L12 13.2918L6.55924 18.7326C6.2027 19.0891 5.62396 19.0891 5.26741 18.7326C4.91086 18.376 4.91086 17.7973 5.26741 17.4408L10.7082 12L5.26741 6.55924C4.91086 6.2027 4.91086 5.62396 5.26741 5.26741C5.62396 4.91086 6.2027 4.91086 6.55924 5.26741L12 10.7082L17.4408 5.26741Z" fill="currentColor"/>
</svg>
